<?xml version="1.0" encoding="UTF-8"?>
<svg width="1200pt" height="1200pt" version="1.1" viewBox="0 0 1200 1200" xmlns="http://www.w3.org/2000/svg">
 <path d="m600 1140c143.22 0 280.57-56.895 381.84-158.16 101.27-101.27 158.16-238.62 158.16-381.84s-56.895-280.57-158.16-381.84c-101.27-101.27-238.62-158.16-381.84-158.16s-280.57 56.895-381.84 158.16c-101.27 101.27-158.16 238.62-158.16 381.84 0.16016 143.17 57.102 280.43 158.34 381.66 101.24 101.23 238.5 158.18 381.66 158.34zm0-45.961c-103.39 0.085938-204.18-32.457-288-93 0.47266-1.8398 0.71484-3.7383 0.71875-5.6406 1.5391-75.156 32.473-146.72 86.172-199.33 53.695-52.609 125.88-82.074 201.05-82.074 75.172 0 147.35 29.465 201.05 82.074 53.695 52.613 84.633 124.18 86.168 199.33 0.003906 1.9023 0.24609 3.8008 0.71875 5.6406-83.785 60.52-184.52 93.062-287.88 93zm-138.96-570.84c-0.03125-36.898 14.602-72.301 40.68-98.406 26.078-26.109 61.461-40.781 98.359-40.793 36.902-0.011719 72.293 14.645 98.387 40.734 26.094 26.094 40.746 61.484 40.734 98.387-0.011719 36.898-14.684 72.281-40.793 98.359-26.105 26.078-61.508 40.711-98.406 40.68-36.836-0.0625-72.145-14.723-98.191-40.77-26.043-26.047-40.707-61.355-40.77-98.191zm138.96-417.24c99.773-0.066407 197.22 30.098 279.52 86.508 82.293 56.414 145.57 136.43 181.48 229.51 35.922 93.078 42.805 194.86 19.742 291.93-23.066 97.066-74.992 184.88-148.94 251.85-5.9062-65.371-30.945-127.55-71.984-178.77-41.043-51.219-96.266-89.211-158.78-109.23 33.371-21.773 58.82-53.742 72.551-91.145 13.734-37.406 15.016-78.246 3.6602-116.44-11.355-38.195-34.746-71.695-66.688-95.52-31.938-23.824-70.719-36.695-110.56-36.695s-78.625 12.871-110.56 36.695c-31.941 23.824-55.332 57.324-66.688 95.52-11.355 38.191-10.074 79.031 3.6602 116.44 13.73 37.402 39.18 69.371 72.551 91.145-62.512 20.016-117.73 58.008-158.78 109.23-41.039 51.223-66.078 113.4-71.984 178.77-73.949-66.977-125.88-154.79-148.94-251.85-23.062-97.07-16.18-198.85 19.742-291.93 35.918-93.082 99.191-173.1 181.48-229.51 82.293-56.41 179.74-86.574 279.52-86.508z"/>
</svg>
