<?xml version="1.0" encoding="UTF-8"?>
<svg width="1200pt" height="1200pt" version="1.1" viewBox="0 0 1200 1200" xmlns="http://www.w3.org/2000/svg">
 <path d="m620.04 262.68c-6.6016 0-13.32-0.60156-20.039-0.60156s-13.441 0-20.039 0.60156c-287.28 13.32-511.32 310.56-521.04 323.52-2.9727 4.0117-4.5781 8.8711-4.5781 13.859 0 4.9922 1.6055 9.8516 4.5781 13.863 9.6016 12.961 233.76 309.96 520.92 324 6.6016 0 13.32 0.60156 20.039 0.60156s13.441 0 20.039-0.60156c287.16-13.441 511.32-310.56 520.92-324h-0.003906c2.9727-4.0117 4.5742-8.8711 4.5742-13.863 0-4.9883-1.6016-9.8477-4.5742-13.859-9.4805-12.961-233.52-310.2-520.8-323.52zm-512.88 337.32c63.367-77.238 137.77-144.72 220.8-200.28-42.754 57.957-65.82 128.08-65.82 200.1 0 72.02 23.066 142.14 65.82 200.1-82.988-55.48-157.38-122.84-220.8-199.92zm509.28 291.12h-16.441-16.441c-74.488-4.0039-144.61-36.414-195.92-90.559-51.312-54.148-79.914-125.91-79.914-200.5s28.602-146.36 79.914-200.5c51.312-54.145 121.43-86.555 195.92-90.559h16.441 16.441c74.488 4.0039 144.61 36.414 195.92 90.559 51.312 54.145 79.914 125.9 79.914 200.5s-28.602 146.36-79.914 200.5c-51.312 54.145-121.43 86.555-195.92 90.559zm255.72-90.84c42.754-57.957 65.816-128.08 65.816-200.1 0-72.02-23.062-142.14-65.816-200.1 82.941 55.488 157.3 122.84 220.68 199.92-63.367 77.238-137.77 144.72-220.8 200.28z"/>
 <path d="m600 384c-57.285 0-112.23 22.758-152.73 63.266s-63.266 95.449-63.266 152.73 22.758 112.23 63.266 152.73 95.449 63.266 152.73 63.266 112.23-22.758 152.73-63.266 63.266-95.449 63.266-152.73-22.758-112.23-63.266-152.73-95.449-63.266-152.73-63.266zm0 386.04c-45.02 0-88.195-17.879-120.04-49.703-31.84-31.828-49.738-74.996-49.762-120.02-0.019531-45.02 17.84-88.207 49.648-120.06 31.812-31.855 74.973-49.773 119.99-49.816 45.02-0.042968 88.215 17.793 120.09 49.59 31.871 31.797 49.812 74.949 49.875 119.97-0.03125 45.023-17.934 88.195-49.77 120.03s-75.008 49.738-120.03 49.77z"/>
</svg>
