<?xml version="1.0" encoding="UTF-8"?>
<svg width="1200pt" height="1200pt" version="1.1" viewBox="0 0 1200 1200" xmlns="http://www.w3.org/2000/svg">
 <path d="m320.64 846.84-157.68 157.68c-5.8086 5.8086-8.0781 14.277-5.9531 22.211 2.125 7.9375 8.3242 14.137 16.262 16.262 7.9336 2.125 16.402-0.14453 22.211-5.9531l166.56-166.56c67.145 36.902 141.58 58.574 218.04 63.48 6.6016 0 13.199 0.60156 19.922 0.60156 6.7188 0 13.32 0 19.922-0.60156 284.28-13.32 506.04-307.32 516-320.16 2.9219-3.9609 4.5-8.7578 4.5-13.68 0-4.9258-1.5781-9.7188-4.5-13.68-71.523-91.887-158.3-170.8-256.56-233.28l157.68-157.68c5.8086-5.8086 8.0781-14.277 5.9531-22.211-2.125-7.9375-8.3242-14.137-16.262-16.262-7.9336-2.125-16.402 0.14453-22.211 5.9531l-166.56 166.56c-67.145-36.902-141.58-58.574-218.04-63.48-6.6016 0-13.199-0.60156-19.922-0.60156-6.7188 0-13.32 0-19.922 0.60156-284.28 13.32-506.04 307.32-516 320.16-2.9219 3.9609-4.5 8.7578-4.5 13.68 0 4.9258 1.5781 9.7188 4.5 13.68 71.523 91.887 158.3 170.8 256.56 233.28zm767.04-246.84c-62.684 76.398-136.27 143.16-218.4 198.12 42.293-57.352 65.113-126.74 65.113-198 0-71.262-22.82-140.65-65.113-198 82.082 54.926 155.66 121.59 218.4 197.88zm-199.68 0c-0.11328 73.59-28.301 144.36-78.809 197.88-50.508 53.52-119.53 85.75-192.99 90.121h-16.199-16.32c-62.895-3.4922-122.89-27.57-170.76-68.52l52.922-52.922h-0.003906c41.027 33.391 92.98 50.379 145.81 47.68 52.828-2.6992 102.78-24.891 140.19-62.289 37.41-37.395 59.625-87.336 62.344-140.16s-14.246-104.79-47.621-145.82l52.922-52.922c44.398 52.16 68.699 118.46 68.52 186.96zm-389.28 133.8 235.08-235.08c24.09 32.355 35.73 72.301 32.801 112.53-2.9297 40.23-20.238 78.066-48.762 106.59-28.523 28.523-66.359 45.832-106.59 48.762-40.23 2.9297-80.176-8.7109-112.53-32.801zm85.082-421.8h16.199 16.32c62.895 3.4922 122.89 27.57 170.76 68.52l-52.922 52.922h0.003906c-30.207-24.352-66.469-40.02-104.9-45.324-38.434-5.3086-77.586-0.050782-113.26 15.203-7.5469 3.2383-12.789 10.254-13.762 18.406-0.96875 8.1523 2.4844 16.203 9.0625 21.121 6.5742 4.9141 15.273 5.9492 22.82 2.7109 27.332-11.719 57.289-15.973 86.805-12.324s57.535 15.066 81.195 33.086l-235.92 234.96c-22.195-29.098-34.211-64.684-34.199-101.28 0-8.2109-4.3789-15.797-11.488-19.902-7.1133-4.1055-15.871-4.1055-22.98 0-7.1094 4.1055-11.492 11.691-11.492 19.902 0.14453 48.863 17.09 96.191 48 134.04l-52.922 52.922h0.003906c-46.844-54.66-71.516-124.88-69.16-196.83 2.3516-71.945 31.566-140.4 81.879-191.88 50.316-51.477 118.09-82.25 189.96-86.25zm-253.08 89.879c-42.293 57.352-65.113 126.74-65.113 198 0 71.262 22.82 140.65 65.113 198-82.082-54.926-155.66-121.59-218.4-197.88 62.684-76.398 136.27-143.16 218.4-198.12z"/>
</svg>
