<?xml version="1.0" encoding="UTF-8"?>
<svg width="1200pt" height="1200pt" version="1.1" viewBox="0 0 1200 1200" xmlns="http://www.w3.org/2000/svg">
 <path d="m600 290.16c-91.844 0-166.26 74.414-166.26 166.26v90.688h-45.344c-24.859 0-45.344 20.484-45.344 45.344v272.06c0 24.859 20.484 45.344 45.344 45.344h423.2c24.859 0 45.344-20.484 45.344-45.344v-272.06c0-24.859-20.484-45.344-45.344-45.344h-45.344v-90.688c0-91.844-74.41-166.26-166.26-166.26zm0 30.23c75.621 0 136.03 60.406 136.03 136.03v90.688h-272.06v-90.688c0-75.621 60.406-136.03 136.03-136.03zm-211.6 256.94h423.2c8.6367 0 15.113 6.4805 15.113 15.113v272.06c0 8.6367-6.4805 15.113-15.113 15.113h-423.2c-8.6328 0-15.113-6.4805-15.113-15.113v-272.06c0-8.6367 6.4805-15.113 15.113-15.113zm211.6 60.457c-33.211 0-60.457 27.246-60.457 60.457 0 14.824 6.1875 27.715 15.113 38.258v37.312c0 24.859 20.484 45.344 45.344 45.344s45.344-20.484 45.344-45.344v-37.312c8.9258-10.543 15.113-23.434 15.113-38.258 0-33.211-27.246-60.457-60.457-60.457zm0 30.23c16.875 0 30.23 13.355 30.23 30.23 0 9.0352-3.9453 16.875-10.156 22.438v-0.007812c-3.1953 2.8984-5 7.0234-4.957 11.336v41.801c0 8.6367-6.4805 15.113-15.113 15.113-8.6328 0-15.113-6.4805-15.113-15.113v-41.801h-0.003906c0.039062-4.3125-1.7656-8.4375-4.957-11.336-6.2109-5.5625-10.156-13.398-10.156-22.434 0-16.875 13.355-30.23 30.23-30.23z"/>
</svg>
